<?xml version="1.0" encoding="utf-8" standalone="no"?>
<!DOCTYPE svg PUBLIC "-//W3C//DTD SVG 1.1//EN"
  "http://www.w3.org/Graphics/SVG/1.1/DTD/svg11.dtd">
<svg height="345.6pt" version="1.1" viewBox="0 0 460.8 345.6" width="460.8pt" xmlns="http://www.w3.org/2000/svg" xmlns:xlink="http://www.w3.org/1999/xlink">
 <metadata>
  <rdf:RDF xmlns:cc="http://creativecommons.org/ns#" xmlns:dc="http://purl.org/dc/elements/1.1/" xmlns:rdf="http://www.w3.org/1999/02/22-rdf-syntax-ns#">
   <cc:Work>
    <dc:type rdf:resource="http://purl.org/dc/dcmitype/StillImage"/>
    <dc:date>2021-10-15T12:15:48.169825</dc:date>
    <dc:format>image/svg+xml</dc:format>
    <dc:creator>
     <cc:Agent>
      <dc:title>Matplotlib v3.4.2, https://matplotlib.org/</dc:title>
     </cc:Agent>
    </dc:creator>
   </cc:Work>
  </rdf:RDF>
 </metadata>
 <defs>
  <style type="text/css">*{stroke-linecap:butt;stroke-linejoin:round;}</style>
 </defs>
 <g id="figure_1">
  <g id="patch_1">
   <path d="M 0 345.6 
L 460.8 345.6 
L 460.8 0 
L 0 0 
z
" style="fill:#ffffff;"/>
  </g>
  <g id="axes_1">
   <g id="patch_2">
    <path d="M 44.57 303.64 
L 450 303.64 
L 450 26.88 
L 44.57 26.88 
z
" style="fill:#ffffff;"/>
   </g>
   <g id="matplotlib.axis_1">
    <g id="xtick_1">
     <g id="line2d_1">
      <defs>
       <path d="M 0 0 
L 0 3.5 
" id="m1329101596" style="stroke:#000000;stroke-width:0.8;"/>
      </defs>
      <g>
       <use style="stroke:#000000;stroke-width:0.8;" x="51.109194" xlink:href="#m1329101596" y="303.64"/>
      </g>
     </g>
     <g id="text_1">
      <!-- 0 -->
      <g transform="translate(47.927944 318.238437)scale(0.1 -0.1)">
       <defs>
        <path d="M 2034 4250 
Q 1547 4250 1301 3770 
Q 1056 3291 1056 2328 
Q 1056 1369 1301 889 
Q 1547 409 2034 409 
Q 2525 409 2770 889 
Q 3016 1369 3016 2328 
Q 3016 3291 2770 3770 
Q 2525 4250 2034 4250 
z
M 2034 4750 
Q 2819 4750 3233 4129 
Q 3647 3509 3647 2328 
Q 3647 1150 3233 529 
Q 2819 -91 2034 -91 
Q 1250 -91 836 529 
Q 422 1150 422 2328 
Q 422 3509 836 4129 
Q 1250 4750 2034 4750 
z
" id="DejaVuSans-30" transform="scale(0.015625)"/>
       </defs>
       <use xlink:href="#DejaVuSans-30"/>
      </g>
     </g>
    </g>
    <g id="xtick_2">
     <g id="line2d_2">
      <g>
       <use style="stroke:#000000;stroke-width:0.8;" x="74.888079" xlink:href="#m1329101596" y="303.64"/>
      </g>
     </g>
     <g id="text_2">
      <!-- 4 -->
      <g transform="translate(71.706829 318.238437)scale(0.1 -0.1)">
       <defs>
        <path d="M 2419 4116 
L 825 1625 
L 2419 1625 
L 2419 4116 
z
M 2253 4666 
L 3047 4666 
L 3047 1625 
L 3713 1625 
L 3713 1100 
L 3047 1100 
L 3047 0 
L 2419 0 
L 2419 1100 
L 313 1100 
L 313 1709 
L 2253 4666 
z
" id="DejaVuSans-34" transform="scale(0.015625)"/>
       </defs>
       <use xlink:href="#DejaVuSans-34"/>
      </g>
     </g>
    </g>
    <g id="xtick_3">
     <g id="line2d_3">
      <g>
       <use style="stroke:#000000;stroke-width:0.8;" x="98.666965" xlink:href="#m1329101596" y="303.64"/>
      </g>
     </g>
     <g id="text_3">
      <!-- 8 -->
      <g transform="translate(95.485715 318.238437)scale(0.1 -0.1)">
       <defs>
        <path d="M 2034 2216 
Q 1584 2216 1326 1975 
Q 1069 1734 1069 1313 
Q 1069 891 1326 650 
Q 1584 409 2034 409 
Q 2484 409 2743 651 
Q 3003 894 3003 1313 
Q 3003 1734 2745 1975 
Q 2488 2216 2034 2216 
z
M 1403 2484 
Q 997 2584 770 2862 
Q 544 3141 544 3541 
Q 544 4100 942 4425 
Q 1341 4750 2034 4750 
Q 2731 4750 3128 4425 
Q 3525 4100 3525 3541 
Q 3525 3141 3298 2862 
Q 3072 2584 2669 2484 
Q 3125 2378 3379 2068 
Q 3634 1759 3634 1313 
Q 3634 634 3220 271 
Q 2806 -91 2034 -91 
Q 1263 -91 848 271 
Q 434 634 434 1313 
Q 434 1759 690 2068 
Q 947 2378 1403 2484 
z
M 1172 3481 
Q 1172 3119 1398 2916 
Q 1625 2713 2034 2713 
Q 2441 2713 2670 2916 
Q 2900 3119 2900 3481 
Q 2900 3844 2670 4047 
Q 2441 4250 2034 4250 
Q 1625 4250 1398 4047 
Q 1172 3844 1172 3481 
z
" id="DejaVuSans-38" transform="scale(0.015625)"/>
       </defs>
       <use xlink:href="#DejaVuSans-38"/>
      </g>
     </g>
    </g>
    <g id="xtick_4">
     <g id="line2d_4">
      <g>
       <use style="stroke:#000000;stroke-width:0.8;" x="122.44585" xlink:href="#m1329101596" y="303.64"/>
      </g>
     </g>
     <g id="text_4">
      <!-- 12 -->
      <g transform="translate(116.08335 318.238437)scale(0.1 -0.1)">
       <defs>
        <path d="M 794 531 
L 1825 531 
L 1825 4091 
L 703 3866 
L 703 4441 
L 1819 4666 
L 2450 4666 
L 2450 531 
L 3481 531 
L 3481 0 
L 794 0 
L 794 531 
z
" id="DejaVuSans-31" transform="scale(0.015625)"/>
        <path d="M 1228 531 
L 3431 531 
L 3431 0 
L 469 0 
L 469 531 
Q 828 903 1448 1529 
Q 2069 2156 2228 2338 
Q 2531 2678 2651 2914 
Q 2772 3150 2772 3378 
Q 2772 3750 2511 3984 
Q 2250 4219 1831 4219 
Q 1534 4219 1204 4116 
Q 875 4013 500 3803 
L 500 4441 
Q 881 4594 1212 4672 
Q 1544 4750 1819 4750 
Q 2544 4750 2975 4387 
Q 3406 4025 3406 3419 
Q 3406 3131 3298 2873 
Q 3191 2616 2906 2266 
Q 2828 2175 2409 1742 
Q 1991 1309 1228 531 
z
" id="DejaVuSans-32" transform="scale(0.015625)"/>
       </defs>
       <use xlink:href="#DejaVuSans-31"/>
       <use x="63.623047" xlink:href="#DejaVuSans-32"/>
      </g>
     </g>
    </g>
    <g id="xtick_5">
     <g id="line2d_5">
      <g>
       <use style="stroke:#000000;stroke-width:0.8;" x="146.224736" xlink:href="#m1329101596" y="303.64"/>
      </g>
     </g>
     <g id="text_5">
      <!-- 16 -->
      <g transform="translate(139.862236 318.238437)scale(0.1 -0.1)">
       <defs>
        <path d="M 2113 2584 
Q 1688 2584 1439 2293 
Q 1191 2003 1191 1497 
Q 1191 994 1439 701 
Q 1688 409 2113 409 
Q 2538 409 2786 701 
Q 3034 994 3034 1497 
Q 3034 2003 2786 2293 
Q 2538 2584 2113 2584 
z
M 3366 4563 
L 3366 3988 
Q 3128 4100 2886 4159 
Q 2644 4219 2406 4219 
Q 1781 4219 1451 3797 
Q 1122 3375 1075 2522 
Q 1259 2794 1537 2939 
Q 1816 3084 2150 3084 
Q 2853 3084 3261 2657 
Q 3669 2231 3669 1497 
Q 3669 778 3244 343 
Q 2819 -91 2113 -91 
Q 1303 -91 875 529 
Q 447 1150 447 2328 
Q 447 3434 972 4092 
Q 1497 4750 2381 4750 
Q 2619 4750 2861 4703 
Q 3103 4656 3366 4563 
z
" id="DejaVuSans-36" transform="scale(0.015625)"/>
       </defs>
       <use xlink:href="#DejaVuSans-31"/>
       <use x="63.623047" xlink:href="#DejaVuSans-36"/>
      </g>
     </g>
    </g>
    <g id="xtick_6">
     <g id="line2d_6">
      <g>
       <use style="stroke:#000000;stroke-width:0.8;" x="170.003622" xlink:href="#m1329101596" y="303.64"/>
      </g>
     </g>
     <g id="text_6">
      <!-- 20 -->
      <g transform="translate(163.641122 318.238437)scale(0.1 -0.1)">
       <use xlink:href="#DejaVuSans-32"/>
       <use x="63.623047" xlink:href="#DejaVuSans-30"/>
      </g>
     </g>
    </g>
    <g id="xtick_7">
     <g id="line2d_7">
      <g>
       <use style="stroke:#000000;stroke-width:0.8;" x="193.782507" xlink:href="#m1329101596" y="303.64"/>
      </g>
     </g>
     <g id="text_7">
      <!-- 24 -->
      <g transform="translate(187.420007 318.238437)scale(0.1 -0.1)">
       <use xlink:href="#DejaVuSans-32"/>
       <use x="63.623047" xlink:href="#DejaVuSans-34"/>
      </g>
     </g>
    </g>
    <g id="xtick_8">
     <g id="line2d_8">
      <g>
       <use style="stroke:#000000;stroke-width:0.8;" x="217.561393" xlink:href="#m1329101596" y="303.64"/>
      </g>
     </g>
     <g id="text_8">
      <!-- 28 -->
      <g transform="translate(211.198893 318.238437)scale(0.1 -0.1)">
       <use xlink:href="#DejaVuSans-32"/>
       <use x="63.623047" xlink:href="#DejaVuSans-38"/>
      </g>
     </g>
    </g>
    <g id="xtick_9">
     <g id="line2d_9">
      <g>
       <use style="stroke:#000000;stroke-width:0.8;" x="241.340279" xlink:href="#m1329101596" y="303.64"/>
      </g>
     </g>
     <g id="text_9">
      <!-- 32 -->
      <g transform="translate(234.977779 318.238437)scale(0.1 -0.1)">
       <defs>
        <path d="M 2597 2516 
Q 3050 2419 3304 2112 
Q 3559 1806 3559 1356 
Q 3559 666 3084 287 
Q 2609 -91 1734 -91 
Q 1441 -91 1130 -33 
Q 819 25 488 141 
L 488 750 
Q 750 597 1062 519 
Q 1375 441 1716 441 
Q 2309 441 2620 675 
Q 2931 909 2931 1356 
Q 2931 1769 2642 2001 
Q 2353 2234 1838 2234 
L 1294 2234 
L 1294 2753 
L 1863 2753 
Q 2328 2753 2575 2939 
Q 2822 3125 2822 3475 
Q 2822 3834 2567 4026 
Q 2313 4219 1838 4219 
Q 1578 4219 1281 4162 
Q 984 4106 628 3988 
L 628 4550 
Q 988 4650 1302 4700 
Q 1616 4750 1894 4750 
Q 2613 4750 3031 4423 
Q 3450 4097 3450 3541 
Q 3450 3153 3228 2886 
Q 3006 2619 2597 2516 
z
" id="DejaVuSans-33" transform="scale(0.015625)"/>
       </defs>
       <use xlink:href="#DejaVuSans-33"/>
       <use x="63.623047" xlink:href="#DejaVuSans-32"/>
      </g>
     </g>
    </g>
    <g id="xtick_10">
     <g id="line2d_10">
      <g>
       <use style="stroke:#000000;stroke-width:0.8;" x="265.119164" xlink:href="#m1329101596" y="303.64"/>
      </g>
     </g>
     <g id="text_10">
      <!-- 36 -->
      <g transform="translate(258.756664 318.238437)scale(0.1 -0.1)">
       <use xlink:href="#DejaVuSans-33"/>
       <use x="63.623047" xlink:href="#DejaVuSans-36"/>
      </g>
     </g>
    </g>
    <g id="xtick_11">
     <g id="line2d_11">
      <g>
       <use style="stroke:#000000;stroke-width:0.8;" x="288.89805" xlink:href="#m1329101596" y="303.64"/>
      </g>
     </g>
     <g id="text_11">
      <!-- 40 -->
      <g transform="translate(282.53555 318.238437)scale(0.1 -0.1)">
       <use xlink:href="#DejaVuSans-34"/>
       <use x="63.623047" xlink:href="#DejaVuSans-30"/>
      </g>
     </g>
    </g>
    <g id="xtick_12">
     <g id="line2d_12">
      <g>
       <use style="stroke:#000000;stroke-width:0.8;" x="312.676935" xlink:href="#m1329101596" y="303.64"/>
      </g>
     </g>
     <g id="text_12">
      <!-- 44 -->
      <g transform="translate(306.314435 318.238437)scale(0.1 -0.1)">
       <use xlink:href="#DejaVuSans-34"/>
       <use x="63.623047" xlink:href="#DejaVuSans-34"/>
      </g>
     </g>
    </g>
    <g id="xtick_13">
     <g id="line2d_13">
      <g>
       <use style="stroke:#000000;stroke-width:0.8;" x="336.455821" xlink:href="#m1329101596" y="303.64"/>
      </g>
     </g>
     <g id="text_13">
      <!-- 48 -->
      <g transform="translate(330.093321 318.238437)scale(0.1 -0.1)">
       <use xlink:href="#DejaVuSans-34"/>
       <use x="63.623047" xlink:href="#DejaVuSans-38"/>
      </g>
     </g>
    </g>
    <g id="xtick_14">
     <g id="line2d_14">
      <g>
       <use style="stroke:#000000;stroke-width:0.8;" x="360.234707" xlink:href="#m1329101596" y="303.64"/>
      </g>
     </g>
     <g id="text_14">
      <!-- 52 -->
      <g transform="translate(353.872207 318.238437)scale(0.1 -0.1)">
       <defs>
        <path d="M 691 4666 
L 3169 4666 
L 3169 4134 
L 1269 4134 
L 1269 2991 
Q 1406 3038 1543 3061 
Q 1681 3084 1819 3084 
Q 2600 3084 3056 2656 
Q 3513 2228 3513 1497 
Q 3513 744 3044 326 
Q 2575 -91 1722 -91 
Q 1428 -91 1123 -41 
Q 819 9 494 109 
L 494 744 
Q 775 591 1075 516 
Q 1375 441 1709 441 
Q 2250 441 2565 725 
Q 2881 1009 2881 1497 
Q 2881 1984 2565 2268 
Q 2250 2553 1709 2553 
Q 1456 2553 1204 2497 
Q 953 2441 691 2322 
L 691 4666 
z
" id="DejaVuSans-35" transform="scale(0.015625)"/>
       </defs>
       <use xlink:href="#DejaVuSans-35"/>
       <use x="63.623047" xlink:href="#DejaVuSans-32"/>
      </g>
     </g>
    </g>
    <g id="xtick_15">
     <g id="line2d_15">
      <g>
       <use style="stroke:#000000;stroke-width:0.8;" x="384.013592" xlink:href="#m1329101596" y="303.64"/>
      </g>
     </g>
     <g id="text_15">
      <!-- 56 -->
      <g transform="translate(377.651092 318.238437)scale(0.1 -0.1)">
       <use xlink:href="#DejaVuSans-35"/>
       <use x="63.623047" xlink:href="#DejaVuSans-36"/>
      </g>
     </g>
    </g>
    <g id="xtick_16">
     <g id="line2d_16">
      <g>
       <use style="stroke:#000000;stroke-width:0.8;" x="407.792478" xlink:href="#m1329101596" y="303.64"/>
      </g>
     </g>
     <g id="text_16">
      <!-- 60 -->
      <g transform="translate(401.429978 318.238437)scale(0.1 -0.1)">
       <use xlink:href="#DejaVuSans-36"/>
       <use x="63.623047" xlink:href="#DejaVuSans-30"/>
      </g>
     </g>
    </g>
    <g id="xtick_17">
     <g id="line2d_17">
      <g>
       <use style="stroke:#000000;stroke-width:0.8;" x="431.571364" xlink:href="#m1329101596" y="303.64"/>
      </g>
     </g>
     <g id="text_17">
      <!-- 64 -->
      <g transform="translate(425.208864 318.238437)scale(0.1 -0.1)">
       <use xlink:href="#DejaVuSans-36"/>
       <use x="63.623047" xlink:href="#DejaVuSans-34"/>
      </g>
     </g>
    </g>
    <g id="text_18">
     <!-- Client Threads -->
     <g transform="translate(211.135781 331.916562)scale(0.1 -0.1)">
      <defs>
       <path d="M 4122 4306 
L 4122 3641 
Q 3803 3938 3442 4084 
Q 3081 4231 2675 4231 
Q 1875 4231 1450 3742 
Q 1025 3253 1025 2328 
Q 1025 1406 1450 917 
Q 1875 428 2675 428 
Q 3081 428 3442 575 
Q 3803 722 4122 1019 
L 4122 359 
Q 3791 134 3420 21 
Q 3050 -91 2638 -91 
Q 1578 -91 968 557 
Q 359 1206 359 2328 
Q 359 3453 968 4101 
Q 1578 4750 2638 4750 
Q 3056 4750 3426 4639 
Q 3797 4528 4122 4306 
z
" id="DejaVuSans-43" transform="scale(0.015625)"/>
       <path d="M 603 4863 
L 1178 4863 
L 1178 0 
L 603 0 
L 603 4863 
z
" id="DejaVuSans-6c" transform="scale(0.015625)"/>
       <path d="M 603 3500 
L 1178 3500 
L 1178 0 
L 603 0 
L 603 3500 
z
M 603 4863 
L 1178 4863 
L 1178 4134 
L 603 4134 
L 603 4863 
z
" id="DejaVuSans-69" transform="scale(0.015625)"/>
       <path d="M 3597 1894 
L 3597 1613 
L 953 1613 
Q 991 1019 1311 708 
Q 1631 397 2203 397 
Q 2534 397 2845 478 
Q 3156 559 3463 722 
L 3463 178 
Q 3153 47 2828 -22 
Q 2503 -91 2169 -91 
Q 1331 -91 842 396 
Q 353 884 353 1716 
Q 353 2575 817 3079 
Q 1281 3584 2069 3584 
Q 2775 3584 3186 3129 
Q 3597 2675 3597 1894 
z
M 3022 2063 
Q 3016 2534 2758 2815 
Q 2500 3097 2075 3097 
Q 1594 3097 1305 2825 
Q 1016 2553 972 2059 
L 3022 2063 
z
" id="DejaVuSans-65" transform="scale(0.015625)"/>
       <path d="M 3513 2113 
L 3513 0 
L 2938 0 
L 2938 2094 
Q 2938 2591 2744 2837 
Q 2550 3084 2163 3084 
Q 1697 3084 1428 2787 
Q 1159 2491 1159 1978 
L 1159 0 
L 581 0 
L 581 3500 
L 1159 3500 
L 1159 2956 
Q 1366 3272 1645 3428 
Q 1925 3584 2291 3584 
Q 2894 3584 3203 3211 
Q 3513 2838 3513 2113 
z
" id="DejaVuSans-6e" transform="scale(0.015625)"/>
       <path d="M 1172 4494 
L 1172 3500 
L 2356 3500 
L 2356 3053 
L 1172 3053 
L 1172 1153 
Q 1172 725 1289 603 
Q 1406 481 1766 481 
L 2356 481 
L 2356 0 
L 1766 0 
Q 1100 0 847 248 
Q 594 497 594 1153 
L 594 3053 
L 172 3053 
L 172 3500 
L 594 3500 
L 594 4494 
L 1172 4494 
z
" id="DejaVuSans-74" transform="scale(0.015625)"/>
       <path id="DejaVuSans-20" transform="scale(0.015625)"/>
       <path d="M -19 4666 
L 3928 4666 
L 3928 4134 
L 2272 4134 
L 2272 0 
L 1638 0 
L 1638 4134 
L -19 4134 
L -19 4666 
z
" id="DejaVuSans-54" transform="scale(0.015625)"/>
       <path d="M 3513 2113 
L 3513 0 
L 2938 0 
L 2938 2094 
Q 2938 2591 2744 2837 
Q 2550 3084 2163 3084 
Q 1697 3084 1428 2787 
Q 1159 2491 1159 1978 
L 1159 0 
L 581 0 
L 581 4863 
L 1159 4863 
L 1159 2956 
Q 1366 3272 1645 3428 
Q 1925 3584 2291 3584 
Q 2894 3584 3203 3211 
Q 3513 2838 3513 2113 
z
" id="DejaVuSans-68" transform="scale(0.015625)"/>
       <path d="M 2631 2963 
Q 2534 3019 2420 3045 
Q 2306 3072 2169 3072 
Q 1681 3072 1420 2755 
Q 1159 2438 1159 1844 
L 1159 0 
L 581 0 
L 581 3500 
L 1159 3500 
L 1159 2956 
Q 1341 3275 1631 3429 
Q 1922 3584 2338 3584 
Q 2397 3584 2469 3576 
Q 2541 3569 2628 3553 
L 2631 2963 
z
" id="DejaVuSans-72" transform="scale(0.015625)"/>
       <path d="M 2194 1759 
Q 1497 1759 1228 1600 
Q 959 1441 959 1056 
Q 959 750 1161 570 
Q 1363 391 1709 391 
Q 2188 391 2477 730 
Q 2766 1069 2766 1631 
L 2766 1759 
L 2194 1759 
z
M 3341 1997 
L 3341 0 
L 2766 0 
L 2766 531 
Q 2569 213 2275 61 
Q 1981 -91 1556 -91 
Q 1019 -91 701 211 
Q 384 513 384 1019 
Q 384 1609 779 1909 
Q 1175 2209 1959 2209 
L 2766 2209 
L 2766 2266 
Q 2766 2663 2505 2880 
Q 2244 3097 1772 3097 
Q 1472 3097 1187 3025 
Q 903 2953 641 2809 
L 641 3341 
Q 956 3463 1253 3523 
Q 1550 3584 1831 3584 
Q 2591 3584 2966 3190 
Q 3341 2797 3341 1997 
z
" id="DejaVuSans-61" transform="scale(0.015625)"/>
       <path d="M 2906 2969 
L 2906 4863 
L 3481 4863 
L 3481 0 
L 2906 0 
L 2906 525 
Q 2725 213 2448 61 
Q 2172 -91 1784 -91 
Q 1150 -91 751 415 
Q 353 922 353 1747 
Q 353 2572 751 3078 
Q 1150 3584 1784 3584 
Q 2172 3584 2448 3432 
Q 2725 3281 2906 2969 
z
M 947 1747 
Q 947 1113 1208 752 
Q 1469 391 1925 391 
Q 2381 391 2643 752 
Q 2906 1113 2906 1747 
Q 2906 2381 2643 2742 
Q 2381 3103 1925 3103 
Q 1469 3103 1208 2742 
Q 947 2381 947 1747 
z
" id="DejaVuSans-64" transform="scale(0.015625)"/>
       <path d="M 2834 3397 
L 2834 2853 
Q 2591 2978 2328 3040 
Q 2066 3103 1784 3103 
Q 1356 3103 1142 2972 
Q 928 2841 928 2578 
Q 928 2378 1081 2264 
Q 1234 2150 1697 2047 
L 1894 2003 
Q 2506 1872 2764 1633 
Q 3022 1394 3022 966 
Q 3022 478 2636 193 
Q 2250 -91 1575 -91 
Q 1294 -91 989 -36 
Q 684 19 347 128 
L 347 722 
Q 666 556 975 473 
Q 1284 391 1588 391 
Q 1994 391 2212 530 
Q 2431 669 2431 922 
Q 2431 1156 2273 1281 
Q 2116 1406 1581 1522 
L 1381 1569 
Q 847 1681 609 1914 
Q 372 2147 372 2553 
Q 372 3047 722 3315 
Q 1072 3584 1716 3584 
Q 2034 3584 2315 3537 
Q 2597 3491 2834 3397 
z
" id="DejaVuSans-73" transform="scale(0.015625)"/>
      </defs>
      <use xlink:href="#DejaVuSans-43"/>
      <use x="69.824219" xlink:href="#DejaVuSans-6c"/>
      <use x="97.607422" xlink:href="#DejaVuSans-69"/>
      <use x="125.390625" xlink:href="#DejaVuSans-65"/>
      <use x="186.914062" xlink:href="#DejaVuSans-6e"/>
      <use x="250.292969" xlink:href="#DejaVuSans-74"/>
      <use x="289.501953" xlink:href="#DejaVuSans-20"/>
      <use x="321.289062" xlink:href="#DejaVuSans-54"/>
      <use x="382.373047" xlink:href="#DejaVuSans-68"/>
      <use x="445.751953" xlink:href="#DejaVuSans-72"/>
      <use x="484.615234" xlink:href="#DejaVuSans-65"/>
      <use x="546.138672" xlink:href="#DejaVuSans-61"/>
      <use x="607.417969" xlink:href="#DejaVuSans-64"/>
      <use x="670.894531" xlink:href="#DejaVuSans-73"/>
     </g>
    </g>
   </g>
   <g id="matplotlib.axis_2">
    <g id="ytick_1">
     <g id="line2d_18">
      <defs>
       <path d="M 0 0 
L -3.5 0 
" id="m64d3e52f3e" style="stroke:#000000;stroke-width:0.8;"/>
      </defs>
      <g>
       <use style="stroke:#000000;stroke-width:0.8;" x="44.57" xlink:href="#m64d3e52f3e" y="287.997364"/>
      </g>
     </g>
     <g id="text_19">
      <!-- 55 -->
      <g transform="translate(24.845 291.796582)scale(0.1 -0.1)">
       <use xlink:href="#DejaVuSans-35"/>
       <use x="63.623047" xlink:href="#DejaVuSans-35"/>
      </g>
     </g>
    </g>
    <g id="ytick_2">
     <g id="line2d_19">
      <g>
       <use style="stroke:#000000;stroke-width:0.8;" x="44.57" xlink:href="#m64d3e52f3e" y="251.18683"/>
      </g>
     </g>
     <g id="text_20">
      <!-- 60 -->
      <g transform="translate(24.845 254.986048)scale(0.1 -0.1)">
       <use xlink:href="#DejaVuSans-36"/>
       <use x="63.623047" xlink:href="#DejaVuSans-30"/>
      </g>
     </g>
    </g>
    <g id="ytick_3">
     <g id="line2d_20">
      <g>
       <use style="stroke:#000000;stroke-width:0.8;" x="44.57" xlink:href="#m64d3e52f3e" y="214.376296"/>
      </g>
     </g>
     <g id="text_21">
      <!-- 65 -->
      <g transform="translate(24.845 218.175514)scale(0.1 -0.1)">
       <use xlink:href="#DejaVuSans-36"/>
       <use x="63.623047" xlink:href="#DejaVuSans-35"/>
      </g>
     </g>
    </g>
    <g id="ytick_4">
     <g id="line2d_21">
      <g>
       <use style="stroke:#000000;stroke-width:0.8;" x="44.57" xlink:href="#m64d3e52f3e" y="177.565762"/>
      </g>
     </g>
     <g id="text_22">
      <!-- 70 -->
      <g transform="translate(24.845 181.36498)scale(0.1 -0.1)">
       <defs>
        <path d="M 525 4666 
L 3525 4666 
L 3525 4397 
L 1831 0 
L 1172 0 
L 2766 4134 
L 525 4134 
L 525 4666 
z
" id="DejaVuSans-37" transform="scale(0.015625)"/>
       </defs>
       <use xlink:href="#DejaVuSans-37"/>
       <use x="63.623047" xlink:href="#DejaVuSans-30"/>
      </g>
     </g>
    </g>
    <g id="ytick_5">
     <g id="line2d_22">
      <g>
       <use style="stroke:#000000;stroke-width:0.8;" x="44.57" xlink:href="#m64d3e52f3e" y="140.755228"/>
      </g>
     </g>
     <g id="text_23">
      <!-- 75 -->
      <g transform="translate(24.845 144.554446)scale(0.1 -0.1)">
       <use xlink:href="#DejaVuSans-37"/>
       <use x="63.623047" xlink:href="#DejaVuSans-35"/>
      </g>
     </g>
    </g>
    <g id="ytick_6">
     <g id="line2d_23">
      <g>
       <use style="stroke:#000000;stroke-width:0.8;" x="44.57" xlink:href="#m64d3e52f3e" y="103.944693"/>
      </g>
     </g>
     <g id="text_24">
      <!-- 80 -->
      <g transform="translate(24.845 107.743912)scale(0.1 -0.1)">
       <use xlink:href="#DejaVuSans-38"/>
       <use x="63.623047" xlink:href="#DejaVuSans-30"/>
      </g>
     </g>
    </g>
    <g id="ytick_7">
     <g id="line2d_24">
      <g>
       <use style="stroke:#000000;stroke-width:0.8;" x="44.57" xlink:href="#m64d3e52f3e" y="67.134159"/>
      </g>
     </g>
     <g id="text_25">
      <!-- 85 -->
      <g transform="translate(24.845 70.933378)scale(0.1 -0.1)">
       <use xlink:href="#DejaVuSans-38"/>
       <use x="63.623047" xlink:href="#DejaVuSans-35"/>
      </g>
     </g>
    </g>
    <g id="ytick_8">
     <g id="line2d_25">
      <g>
       <use style="stroke:#000000;stroke-width:0.8;" x="44.57" xlink:href="#m64d3e52f3e" y="30.323625"/>
      </g>
     </g>
     <g id="text_26">
      <!-- 90 -->
      <g transform="translate(24.845 34.122844)scale(0.1 -0.1)">
       <defs>
        <path d="M 703 97 
L 703 672 
Q 941 559 1184 500 
Q 1428 441 1663 441 
Q 2288 441 2617 861 
Q 2947 1281 2994 2138 
Q 2813 1869 2534 1725 
Q 2256 1581 1919 1581 
Q 1219 1581 811 2004 
Q 403 2428 403 3163 
Q 403 3881 828 4315 
Q 1253 4750 1959 4750 
Q 2769 4750 3195 4129 
Q 3622 3509 3622 2328 
Q 3622 1225 3098 567 
Q 2575 -91 1691 -91 
Q 1453 -91 1209 -44 
Q 966 3 703 97 
z
M 1959 2075 
Q 2384 2075 2632 2365 
Q 2881 2656 2881 3163 
Q 2881 3666 2632 3958 
Q 2384 4250 1959 4250 
Q 1534 4250 1286 3958 
Q 1038 3666 1038 3163 
Q 1038 2656 1286 2365 
Q 1534 2075 1959 2075 
z
" id="DejaVuSans-39" transform="scale(0.015625)"/>
       </defs>
       <use xlink:href="#DejaVuSans-39"/>
       <use x="63.623047" xlink:href="#DejaVuSans-30"/>
      </g>
     </g>
    </g>
    <g id="text_27">
     <!-- KOP/s -->
     <g transform="translate(18.765313 179.50375)rotate(-90)scale(0.1 -0.1)">
      <defs>
       <path d="M 628 4666 
L 1259 4666 
L 1259 2694 
L 3353 4666 
L 4166 4666 
L 1850 2491 
L 4331 0 
L 3500 0 
L 1259 2247 
L 1259 0 
L 628 0 
L 628 4666 
z
" id="DejaVuSans-4b" transform="scale(0.015625)"/>
       <path d="M 2522 4238 
Q 1834 4238 1429 3725 
Q 1025 3213 1025 2328 
Q 1025 1447 1429 934 
Q 1834 422 2522 422 
Q 3209 422 3611 934 
Q 4013 1447 4013 2328 
Q 4013 3213 3611 3725 
Q 3209 4238 2522 4238 
z
M 2522 4750 
Q 3503 4750 4090 4092 
Q 4678 3434 4678 2328 
Q 4678 1225 4090 567 
Q 3503 -91 2522 -91 
Q 1538 -91 948 565 
Q 359 1222 359 2328 
Q 359 3434 948 4092 
Q 1538 4750 2522 4750 
z
" id="DejaVuSans-4f" transform="scale(0.015625)"/>
       <path d="M 1259 4147 
L 1259 2394 
L 2053 2394 
Q 2494 2394 2734 2622 
Q 2975 2850 2975 3272 
Q 2975 3691 2734 3919 
Q 2494 4147 2053 4147 
L 1259 4147 
z
M 628 4666 
L 2053 4666 
Q 2838 4666 3239 4311 
Q 3641 3956 3641 3272 
Q 3641 2581 3239 2228 
Q 2838 1875 2053 1875 
L 1259 1875 
L 1259 0 
L 628 0 
L 628 4666 
z
" id="DejaVuSans-50" transform="scale(0.015625)"/>
       <path d="M 1625 4666 
L 2156 4666 
L 531 -594 
L 0 -594 
L 1625 4666 
z
" id="DejaVuSans-2f" transform="scale(0.015625)"/>
      </defs>
      <use xlink:href="#DejaVuSans-4b"/>
      <use x="60.076172" xlink:href="#DejaVuSans-4f"/>
      <use x="138.787109" xlink:href="#DejaVuSans-50"/>
      <use x="199.089844" xlink:href="#DejaVuSans-2f"/>
      <use x="232.78125" xlink:href="#DejaVuSans-73"/>
     </g>
    </g>
   </g>
   <g id="line2d_26">
    <path clip-path="url(#p6fb1fcf7aa)" d="M 62.998636 152.777548 
L 74.888079 46.777934 
L 98.666965 67.951353 
L 146.224736 76.587105 
L 193.782507 105.822031 
L 241.340279 136.477843 
L 288.89805 171.300609 
L 336.455821 197.686399 
L 384.013592 234.533744 
L 431.571364 264.681571 
" style="fill:none;stroke:#3db7e9;stroke-linecap:square;stroke-width:1.5;"/>
    <defs>
     <path d="M -3 3 
L 3 -3 
M -3 -3 
L 3 3 
" id="m211ca92c9c" style="stroke:#3db7e9;"/>
    </defs>
    <g clip-path="url(#p6fb1fcf7aa)">
     <use style="fill:#3db7e9;stroke:#3db7e9;" x="62.998636" xlink:href="#m211ca92c9c" y="152.777548"/>
     <use style="fill:#3db7e9;stroke:#3db7e9;" x="74.888079" xlink:href="#m211ca92c9c" y="46.777934"/>
     <use style="fill:#3db7e9;stroke:#3db7e9;" x="98.666965" xlink:href="#m211ca92c9c" y="67.951353"/>
     <use style="fill:#3db7e9;stroke:#3db7e9;" x="146.224736" xlink:href="#m211ca92c9c" y="76.587105"/>
     <use style="fill:#3db7e9;stroke:#3db7e9;" x="193.782507" xlink:href="#m211ca92c9c" y="105.822031"/>
     <use style="fill:#3db7e9;stroke:#3db7e9;" x="241.340279" xlink:href="#m211ca92c9c" y="136.477843"/>
     <use style="fill:#3db7e9;stroke:#3db7e9;" x="288.89805" xlink:href="#m211ca92c9c" y="171.300609"/>
     <use style="fill:#3db7e9;stroke:#3db7e9;" x="336.455821" xlink:href="#m211ca92c9c" y="197.686399"/>
     <use style="fill:#3db7e9;stroke:#3db7e9;" x="384.013592" xlink:href="#m211ca92c9c" y="234.533744"/>
     <use style="fill:#3db7e9;stroke:#3db7e9;" x="431.571364" xlink:href="#m211ca92c9c" y="264.681571"/>
    </g>
   </g>
   <g id="line2d_27">
    <path clip-path="url(#p6fb1fcf7aa)" d="M 62.998636 154.912559 
L 74.888079 41.830598 
L 98.666965 50.893352 
L 146.224736 76.969934 
L 193.782507 104.452679 
L 241.340279 135.829978 
L 288.89805 168.782768 
L 336.455821 204.88654 
L 384.013592 251.297261 
L 431.571364 284.205879 
" style="fill:none;stroke:#f748a5;stroke-linecap:square;stroke-width:1.5;"/>
    <defs>
     <path d="M -3 3 
L 3 -3 
M -3 -3 
L 3 3 
" id="m14e0f56c90" style="stroke:#f748a5;"/>
    </defs>
    <g clip-path="url(#p6fb1fcf7aa)">
     <use style="fill:#f748a5;stroke:#f748a5;" x="62.998636" xlink:href="#m14e0f56c90" y="154.912559"/>
     <use style="fill:#f748a5;stroke:#f748a5;" x="74.888079" xlink:href="#m14e0f56c90" y="41.830598"/>
     <use style="fill:#f748a5;stroke:#f748a5;" x="98.666965" xlink:href="#m14e0f56c90" y="50.893352"/>
     <use style="fill:#f748a5;stroke:#f748a5;" x="146.224736" xlink:href="#m14e0f56c90" y="76.969934"/>
     <use style="fill:#f748a5;stroke:#f748a5;" x="193.782507" xlink:href="#m14e0f56c90" y="104.452679"/>
     <use style="fill:#f748a5;stroke:#f748a5;" x="241.340279" xlink:href="#m14e0f56c90" y="135.829978"/>
     <use style="fill:#f748a5;stroke:#f748a5;" x="288.89805" xlink:href="#m14e0f56c90" y="168.782768"/>
     <use style="fill:#f748a5;stroke:#f748a5;" x="336.455821" xlink:href="#m14e0f56c90" y="204.88654"/>
     <use style="fill:#f748a5;stroke:#f748a5;" x="384.013592" xlink:href="#m14e0f56c90" y="251.297261"/>
     <use style="fill:#f748a5;stroke:#f748a5;" x="431.571364" xlink:href="#m14e0f56c90" y="284.205879"/>
    </g>
   </g>
   <g id="line2d_28">
    <path clip-path="url(#p6fb1fcf7aa)" d="M 62.998636 155.435268 
L 74.888079 39.46 
L 98.666965 64.100971 
L 146.224736 72.331807 
L 193.782507 112.749773 
L 241.340279 146.313618 
L 288.89805 172.588977 
L 336.455821 208.648576 
L 384.013592 261.221381 
L 431.571364 288.770385 
" style="fill:none;stroke:#359b73;stroke-linecap:square;stroke-width:1.5;"/>
    <defs>
     <path d="M -3 3 
L 3 -3 
M -3 -3 
L 3 3 
" id="mfa41c9182e" style="stroke:#359b73;"/>
    </defs>
    <g clip-path="url(#p6fb1fcf7aa)">
     <use style="fill:#359b73;stroke:#359b73;" x="62.998636" xlink:href="#mfa41c9182e" y="155.435268"/>
     <use style="fill:#359b73;stroke:#359b73;" x="74.888079" xlink:href="#mfa41c9182e" y="39.46"/>
     <use style="fill:#359b73;stroke:#359b73;" x="98.666965" xlink:href="#mfa41c9182e" y="64.100971"/>
     <use style="fill:#359b73;stroke:#359b73;" x="146.224736" xlink:href="#mfa41c9182e" y="72.331807"/>
     <use style="fill:#359b73;stroke:#359b73;" x="193.782507" xlink:href="#mfa41c9182e" y="112.749773"/>
     <use style="fill:#359b73;stroke:#359b73;" x="241.340279" xlink:href="#mfa41c9182e" y="146.313618"/>
     <use style="fill:#359b73;stroke:#359b73;" x="288.89805" xlink:href="#mfa41c9182e" y="172.588977"/>
     <use style="fill:#359b73;stroke:#359b73;" x="336.455821" xlink:href="#mfa41c9182e" y="208.648576"/>
     <use style="fill:#359b73;stroke:#359b73;" x="384.013592" xlink:href="#mfa41c9182e" y="261.221381"/>
     <use style="fill:#359b73;stroke:#359b73;" x="431.571364" xlink:href="#mfa41c9182e" y="288.770385"/>
    </g>
   </g>
   <g id="line2d_29">
    <path clip-path="url(#p6fb1fcf7aa)" d="M 62.998636 152.659754 
L 74.888079 48.957118 
L 98.666965 52.549826 
L 146.224736 79.870604 
L 193.782507 112.212339 
L 241.340279 141.859544 
L 288.89805 172.066268 
L 336.455821 219.021785 
L 384.013592 246.327839 
L 431.571364 291.06 
" style="fill:none;stroke:#d55e00;stroke-linecap:square;stroke-width:1.5;"/>
    <defs>
     <path d="M -3 3 
L 3 -3 
M -3 -3 
L 3 3 
" id="mfae720d637" style="stroke:#d55e00;"/>
    </defs>
    <g clip-path="url(#p6fb1fcf7aa)">
     <use style="fill:#d55e00;stroke:#d55e00;" x="62.998636" xlink:href="#mfae720d637" y="152.659754"/>
     <use style="fill:#d55e00;stroke:#d55e00;" x="74.888079" xlink:href="#mfae720d637" y="48.957118"/>
     <use style="fill:#d55e00;stroke:#d55e00;" x="98.666965" xlink:href="#mfae720d637" y="52.549826"/>
     <use style="fill:#d55e00;stroke:#d55e00;" x="146.224736" xlink:href="#mfae720d637" y="79.870604"/>
     <use style="fill:#d55e00;stroke:#d55e00;" x="193.782507" xlink:href="#mfae720d637" y="112.212339"/>
     <use style="fill:#d55e00;stroke:#d55e00;" x="241.340279" xlink:href="#mfae720d637" y="141.859544"/>
     <use style="fill:#d55e00;stroke:#d55e00;" x="288.89805" xlink:href="#mfae720d637" y="172.066268"/>
     <use style="fill:#d55e00;stroke:#d55e00;" x="336.455821" xlink:href="#mfae720d637" y="219.021785"/>
     <use style="fill:#d55e00;stroke:#d55e00;" x="384.013592" xlink:href="#mfae720d637" y="246.327839"/>
     <use style="fill:#d55e00;stroke:#d55e00;" x="431.571364" xlink:href="#mfae720d637" y="291.06"/>
    </g>
   </g>
   <g id="line2d_30">
    <path clip-path="url(#p6fb1fcf7aa)" d="M 62.998636 154.176348 
L 74.888079 47.455248 
L 98.666965 45.195081 
L 146.224736 79.554034 
L 193.782507 112.10927 
L 241.340279 144.200693 
L 288.89805 179.862739 
L 336.455821 219.051233 
L 384.013592 263.466824 
L 431.571364 279.49413 
" style="fill:none;stroke:#e69f00;stroke-linecap:square;stroke-width:1.5;"/>
    <defs>
     <path d="M -3 3 
L 3 -3 
M -3 -3 
L 3 3 
" id="ma3fa9f2975" style="stroke:#e69f00;"/>
    </defs>
    <g clip-path="url(#p6fb1fcf7aa)">
     <use style="fill:#e69f00;stroke:#e69f00;" x="62.998636" xlink:href="#ma3fa9f2975" y="154.176348"/>
     <use style="fill:#e69f00;stroke:#e69f00;" x="74.888079" xlink:href="#ma3fa9f2975" y="47.455248"/>
     <use style="fill:#e69f00;stroke:#e69f00;" x="98.666965" xlink:href="#ma3fa9f2975" y="45.195081"/>
     <use style="fill:#e69f00;stroke:#e69f00;" x="146.224736" xlink:href="#ma3fa9f2975" y="79.554034"/>
     <use style="fill:#e69f00;stroke:#e69f00;" x="193.782507" xlink:href="#ma3fa9f2975" y="112.10927"/>
     <use style="fill:#e69f00;stroke:#e69f00;" x="241.340279" xlink:href="#ma3fa9f2975" y="144.200693"/>
     <use style="fill:#e69f00;stroke:#e69f00;" x="288.89805" xlink:href="#ma3fa9f2975" y="179.862739"/>
     <use style="fill:#e69f00;stroke:#e69f00;" x="336.455821" xlink:href="#ma3fa9f2975" y="219.051233"/>
     <use style="fill:#e69f00;stroke:#e69f00;" x="384.013592" xlink:href="#ma3fa9f2975" y="263.466824"/>
     <use style="fill:#e69f00;stroke:#e69f00;" x="431.571364" xlink:href="#ma3fa9f2975" y="279.49413"/>
    </g>
   </g>
   <g id="line2d_31">
    <path clip-path="url(#p6fb1fcf7aa)" d="M 62.998636 150.053568 
L 74.888079 49.163257 
L 98.666965 48.463857 
L 146.224736 71.072887 
L 193.782507 102.855102 
L 241.340279 138.796907 
L 288.89805 176.306841 
L 336.455821 211.328383 
L 384.013592 255.648266 
L 431.571364 282.343266 
" style="fill:none;stroke:#f0e442;stroke-linecap:square;stroke-width:1.5;"/>
    <defs>
     <path d="M -3 3 
L 3 -3 
M -3 -3 
L 3 3 
" id="m05a2e607f7" style="stroke:#f0e442;"/>
    </defs>
    <g clip-path="url(#p6fb1fcf7aa)">
     <use style="fill:#f0e442;stroke:#f0e442;" x="62.998636" xlink:href="#m05a2e607f7" y="150.053568"/>
     <use style="fill:#f0e442;stroke:#f0e442;" x="74.888079" xlink:href="#m05a2e607f7" y="49.163257"/>
     <use style="fill:#f0e442;stroke:#f0e442;" x="98.666965" xlink:href="#m05a2e607f7" y="48.463857"/>
     <use style="fill:#f0e442;stroke:#f0e442;" x="146.224736" xlink:href="#m05a2e607f7" y="71.072887"/>
     <use style="fill:#f0e442;stroke:#f0e442;" x="193.782507" xlink:href="#m05a2e607f7" y="102.855102"/>
     <use style="fill:#f0e442;stroke:#f0e442;" x="241.340279" xlink:href="#m05a2e607f7" y="138.796907"/>
     <use style="fill:#f0e442;stroke:#f0e442;" x="288.89805" xlink:href="#m05a2e607f7" y="176.306841"/>
     <use style="fill:#f0e442;stroke:#f0e442;" x="336.455821" xlink:href="#m05a2e607f7" y="211.328383"/>
     <use style="fill:#f0e442;stroke:#f0e442;" x="384.013592" xlink:href="#m05a2e607f7" y="255.648266"/>
     <use style="fill:#f0e442;stroke:#f0e442;" x="431.571364" xlink:href="#m05a2e607f7" y="282.343266"/>
    </g>
   </g>
   <g id="line2d_32">
    <path clip-path="url(#p6fb1fcf7aa)" d="M 62.998636 150.355415 
L 74.888079 50.090882 
L 98.666965 40.527505 
L 146.224736 70.991903 
L 193.782507 98.577718 
L 241.340279 136.205446 
L 288.89805 180.996503 
L 336.455821 222.585045 
L 384.013592 242.779304 
L 431.571364 276.770151 
" style="fill:none;stroke:#000000;stroke-linecap:square;stroke-width:1.5;"/>
    <defs>
     <path d="M -3 3 
L 3 -3 
M -3 -3 
L 3 3 
" id="m4823446368" style="stroke:#000000;"/>
    </defs>
    <g clip-path="url(#p6fb1fcf7aa)">
     <use style="stroke:#000000;" x="62.998636" xlink:href="#m4823446368" y="150.355415"/>
     <use style="stroke:#000000;" x="74.888079" xlink:href="#m4823446368" y="50.090882"/>
     <use style="stroke:#000000;" x="98.666965" xlink:href="#m4823446368" y="40.527505"/>
     <use style="stroke:#000000;" x="146.224736" xlink:href="#m4823446368" y="70.991903"/>
     <use style="stroke:#000000;" x="193.782507" xlink:href="#m4823446368" y="98.577718"/>
     <use style="stroke:#000000;" x="241.340279" xlink:href="#m4823446368" y="136.205446"/>
     <use style="stroke:#000000;" x="288.89805" xlink:href="#m4823446368" y="180.996503"/>
     <use style="stroke:#000000;" x="336.455821" xlink:href="#m4823446368" y="222.585045"/>
     <use style="stroke:#000000;" x="384.013592" xlink:href="#m4823446368" y="242.779304"/>
     <use style="stroke:#000000;" x="431.571364" xlink:href="#m4823446368" y="276.770151"/>
    </g>
   </g>
   <g id="patch_3">
    <path d="M 44.57 303.64 
L 44.57 26.88 
" style="fill:none;stroke:#000000;stroke-linecap:square;stroke-linejoin:miter;stroke-width:0.8;"/>
   </g>
   <g id="patch_4">
    <path d="M 450 303.64 
L 450 26.88 
" style="fill:none;stroke:#000000;stroke-linecap:square;stroke-linejoin:miter;stroke-width:0.8;"/>
   </g>
   <g id="patch_5">
    <path d="M 44.57 303.64 
L 450 303.64 
" style="fill:none;stroke:#000000;stroke-linecap:square;stroke-linejoin:miter;stroke-width:0.8;"/>
   </g>
   <g id="patch_6">
    <path d="M 44.57 26.88 
L 450 26.88 
" style="fill:none;stroke:#000000;stroke-linecap:square;stroke-linejoin:miter;stroke-width:0.8;"/>
   </g>
   <g id="text_28">
    <!-- Memory Side Queue Pairs (id mapping) [burst=4] -->
    <g transform="translate(98.810313 20.88)scale(0.12 -0.12)">
     <defs>
      <path d="M 628 4666 
L 1569 4666 
L 2759 1491 
L 3956 4666 
L 4897 4666 
L 4897 0 
L 4281 0 
L 4281 4097 
L 3078 897 
L 2444 897 
L 1241 4097 
L 1241 0 
L 628 0 
L 628 4666 
z
" id="DejaVuSans-4d" transform="scale(0.015625)"/>
      <path d="M 3328 2828 
Q 3544 3216 3844 3400 
Q 4144 3584 4550 3584 
Q 5097 3584 5394 3201 
Q 5691 2819 5691 2113 
L 5691 0 
L 5113 0 
L 5113 2094 
Q 5113 2597 4934 2840 
Q 4756 3084 4391 3084 
Q 3944 3084 3684 2787 
Q 3425 2491 3425 1978 
L 3425 0 
L 2847 0 
L 2847 2094 
Q 2847 2600 2669 2842 
Q 2491 3084 2119 3084 
Q 1678 3084 1418 2786 
Q 1159 2488 1159 1978 
L 1159 0 
L 581 0 
L 581 3500 
L 1159 3500 
L 1159 2956 
Q 1356 3278 1631 3431 
Q 1906 3584 2284 3584 
Q 2666 3584 2933 3390 
Q 3200 3197 3328 2828 
z
" id="DejaVuSans-6d" transform="scale(0.015625)"/>
      <path d="M 1959 3097 
Q 1497 3097 1228 2736 
Q 959 2375 959 1747 
Q 959 1119 1226 758 
Q 1494 397 1959 397 
Q 2419 397 2687 759 
Q 2956 1122 2956 1747 
Q 2956 2369 2687 2733 
Q 2419 3097 1959 3097 
z
M 1959 3584 
Q 2709 3584 3137 3096 
Q 3566 2609 3566 1747 
Q 3566 888 3137 398 
Q 2709 -91 1959 -91 
Q 1206 -91 779 398 
Q 353 888 353 1747 
Q 353 2609 779 3096 
Q 1206 3584 1959 3584 
z
" id="DejaVuSans-6f" transform="scale(0.015625)"/>
      <path d="M 2059 -325 
Q 1816 -950 1584 -1140 
Q 1353 -1331 966 -1331 
L 506 -1331 
L 506 -850 
L 844 -850 
Q 1081 -850 1212 -737 
Q 1344 -625 1503 -206 
L 1606 56 
L 191 3500 
L 800 3500 
L 1894 763 
L 2988 3500 
L 3597 3500 
L 2059 -325 
z
" id="DejaVuSans-79" transform="scale(0.015625)"/>
      <path d="M 3425 4513 
L 3425 3897 
Q 3066 4069 2747 4153 
Q 2428 4238 2131 4238 
Q 1616 4238 1336 4038 
Q 1056 3838 1056 3469 
Q 1056 3159 1242 3001 
Q 1428 2844 1947 2747 
L 2328 2669 
Q 3034 2534 3370 2195 
Q 3706 1856 3706 1288 
Q 3706 609 3251 259 
Q 2797 -91 1919 -91 
Q 1588 -91 1214 -16 
Q 841 59 441 206 
L 441 856 
Q 825 641 1194 531 
Q 1563 422 1919 422 
Q 2459 422 2753 634 
Q 3047 847 3047 1241 
Q 3047 1584 2836 1778 
Q 2625 1972 2144 2069 
L 1759 2144 
Q 1053 2284 737 2584 
Q 422 2884 422 3419 
Q 422 4038 858 4394 
Q 1294 4750 2059 4750 
Q 2388 4750 2728 4690 
Q 3069 4631 3425 4513 
z
" id="DejaVuSans-53" transform="scale(0.015625)"/>
      <path d="M 2522 4238 
Q 1834 4238 1429 3725 
Q 1025 3213 1025 2328 
Q 1025 1447 1429 934 
Q 1834 422 2522 422 
Q 3209 422 3611 934 
Q 4013 1447 4013 2328 
Q 4013 3213 3611 3725 
Q 3209 4238 2522 4238 
z
M 3406 84 
L 4238 -825 
L 3475 -825 
L 2784 -78 
Q 2681 -84 2626 -87 
Q 2572 -91 2522 -91 
Q 1538 -91 948 567 
Q 359 1225 359 2328 
Q 359 3434 948 4092 
Q 1538 4750 2522 4750 
Q 3503 4750 4090 4092 
Q 4678 3434 4678 2328 
Q 4678 1516 4351 937 
Q 4025 359 3406 84 
z
" id="DejaVuSans-51" transform="scale(0.015625)"/>
      <path d="M 544 1381 
L 544 3500 
L 1119 3500 
L 1119 1403 
Q 1119 906 1312 657 
Q 1506 409 1894 409 
Q 2359 409 2629 706 
Q 2900 1003 2900 1516 
L 2900 3500 
L 3475 3500 
L 3475 0 
L 2900 0 
L 2900 538 
Q 2691 219 2414 64 
Q 2138 -91 1772 -91 
Q 1169 -91 856 284 
Q 544 659 544 1381 
z
M 1991 3584 
L 1991 3584 
z
" id="DejaVuSans-75" transform="scale(0.015625)"/>
      <path d="M 1984 4856 
Q 1566 4138 1362 3434 
Q 1159 2731 1159 2009 
Q 1159 1288 1364 580 
Q 1569 -128 1984 -844 
L 1484 -844 
Q 1016 -109 783 600 
Q 550 1309 550 2009 
Q 550 2706 781 3412 
Q 1013 4119 1484 4856 
L 1984 4856 
z
" id="DejaVuSans-28" transform="scale(0.015625)"/>
      <path d="M 1159 525 
L 1159 -1331 
L 581 -1331 
L 581 3500 
L 1159 3500 
L 1159 2969 
Q 1341 3281 1617 3432 
Q 1894 3584 2278 3584 
Q 2916 3584 3314 3078 
Q 3713 2572 3713 1747 
Q 3713 922 3314 415 
Q 2916 -91 2278 -91 
Q 1894 -91 1617 61 
Q 1341 213 1159 525 
z
M 3116 1747 
Q 3116 2381 2855 2742 
Q 2594 3103 2138 3103 
Q 1681 3103 1420 2742 
Q 1159 2381 1159 1747 
Q 1159 1113 1420 752 
Q 1681 391 2138 391 
Q 2594 391 2855 752 
Q 3116 1113 3116 1747 
z
" id="DejaVuSans-70" transform="scale(0.015625)"/>
      <path d="M 2906 1791 
Q 2906 2416 2648 2759 
Q 2391 3103 1925 3103 
Q 1463 3103 1205 2759 
Q 947 2416 947 1791 
Q 947 1169 1205 825 
Q 1463 481 1925 481 
Q 2391 481 2648 825 
Q 2906 1169 2906 1791 
z
M 3481 434 
Q 3481 -459 3084 -895 
Q 2688 -1331 1869 -1331 
Q 1566 -1331 1297 -1286 
Q 1028 -1241 775 -1147 
L 775 -588 
Q 1028 -725 1275 -790 
Q 1522 -856 1778 -856 
Q 2344 -856 2625 -561 
Q 2906 -266 2906 331 
L 2906 616 
Q 2728 306 2450 153 
Q 2172 0 1784 0 
Q 1141 0 747 490 
Q 353 981 353 1791 
Q 353 2603 747 3093 
Q 1141 3584 1784 3584 
Q 2172 3584 2450 3431 
Q 2728 3278 2906 2969 
L 2906 3500 
L 3481 3500 
L 3481 434 
z
" id="DejaVuSans-67" transform="scale(0.015625)"/>
      <path d="M 513 4856 
L 1013 4856 
Q 1481 4119 1714 3412 
Q 1947 2706 1947 2009 
Q 1947 1309 1714 600 
Q 1481 -109 1013 -844 
L 513 -844 
Q 928 -128 1133 580 
Q 1338 1288 1338 2009 
Q 1338 2731 1133 3434 
Q 928 4138 513 4856 
z
" id="DejaVuSans-29" transform="scale(0.015625)"/>
      <path d="M 550 4863 
L 1875 4863 
L 1875 4416 
L 1125 4416 
L 1125 -397 
L 1875 -397 
L 1875 -844 
L 550 -844 
L 550 4863 
z
" id="DejaVuSans-5b" transform="scale(0.015625)"/>
      <path d="M 3116 1747 
Q 3116 2381 2855 2742 
Q 2594 3103 2138 3103 
Q 1681 3103 1420 2742 
Q 1159 2381 1159 1747 
Q 1159 1113 1420 752 
Q 1681 391 2138 391 
Q 2594 391 2855 752 
Q 3116 1113 3116 1747 
z
M 1159 2969 
Q 1341 3281 1617 3432 
Q 1894 3584 2278 3584 
Q 2916 3584 3314 3078 
Q 3713 2572 3713 1747 
Q 3713 922 3314 415 
Q 2916 -91 2278 -91 
Q 1894 -91 1617 61 
Q 1341 213 1159 525 
L 1159 0 
L 581 0 
L 581 4863 
L 1159 4863 
L 1159 2969 
z
" id="DejaVuSans-62" transform="scale(0.015625)"/>
      <path d="M 678 2906 
L 4684 2906 
L 4684 2381 
L 678 2381 
L 678 2906 
z
M 678 1631 
L 4684 1631 
L 4684 1100 
L 678 1100 
L 678 1631 
z
" id="DejaVuSans-3d" transform="scale(0.015625)"/>
      <path d="M 1947 4863 
L 1947 -844 
L 622 -844 
L 622 -397 
L 1369 -397 
L 1369 4416 
L 622 4416 
L 622 4863 
L 1947 4863 
z
" id="DejaVuSans-5d" transform="scale(0.015625)"/>
     </defs>
     <use xlink:href="#DejaVuSans-4d"/>
     <use x="86.279297" xlink:href="#DejaVuSans-65"/>
     <use x="147.802734" xlink:href="#DejaVuSans-6d"/>
     <use x="245.214844" xlink:href="#DejaVuSans-6f"/>
     <use x="306.396484" xlink:href="#DejaVuSans-72"/>
     <use x="347.509766" xlink:href="#DejaVuSans-79"/>
     <use x="406.689453" xlink:href="#DejaVuSans-20"/>
     <use x="438.476562" xlink:href="#DejaVuSans-53"/>
     <use x="501.953125" xlink:href="#DejaVuSans-69"/>
     <use x="529.736328" xlink:href="#DejaVuSans-64"/>
     <use x="593.212891" xlink:href="#DejaVuSans-65"/>
     <use x="654.736328" xlink:href="#DejaVuSans-20"/>
     <use x="686.523438" xlink:href="#DejaVuSans-51"/>
     <use x="765.234375" xlink:href="#DejaVuSans-75"/>
     <use x="828.613281" xlink:href="#DejaVuSans-65"/>
     <use x="890.136719" xlink:href="#DejaVuSans-75"/>
     <use x="953.515625" xlink:href="#DejaVuSans-65"/>
     <use x="1015.039062" xlink:href="#DejaVuSans-20"/>
     <use x="1046.826172" xlink:href="#DejaVuSans-50"/>
     <use x="1102.628906" xlink:href="#DejaVuSans-61"/>
     <use x="1163.908203" xlink:href="#DejaVuSans-69"/>
     <use x="1191.691406" xlink:href="#DejaVuSans-72"/>
     <use x="1232.804688" xlink:href="#DejaVuSans-73"/>
     <use x="1284.904297" xlink:href="#DejaVuSans-20"/>
     <use x="1316.691406" xlink:href="#DejaVuSans-28"/>
     <use x="1355.705078" xlink:href="#DejaVuSans-69"/>
     <use x="1383.488281" xlink:href="#DejaVuSans-64"/>
     <use x="1446.964844" xlink:href="#DejaVuSans-20"/>
     <use x="1478.751953" xlink:href="#DejaVuSans-6d"/>
     <use x="1576.164062" xlink:href="#DejaVuSans-61"/>
     <use x="1637.443359" xlink:href="#DejaVuSans-70"/>
     <use x="1700.919922" xlink:href="#DejaVuSans-70"/>
     <use x="1764.396484" xlink:href="#DejaVuSans-69"/>
     <use x="1792.179688" xlink:href="#DejaVuSans-6e"/>
     <use x="1855.558594" xlink:href="#DejaVuSans-67"/>
     <use x="1919.035156" xlink:href="#DejaVuSans-29"/>
     <use x="1958.048828" xlink:href="#DejaVuSans-20"/>
     <use x="1989.835938" xlink:href="#DejaVuSans-5b"/>
     <use x="2028.849609" xlink:href="#DejaVuSans-62"/>
     <use x="2092.326172" xlink:href="#DejaVuSans-75"/>
     <use x="2155.705078" xlink:href="#DejaVuSans-72"/>
     <use x="2196.818359" xlink:href="#DejaVuSans-73"/>
     <use x="2248.917969" xlink:href="#DejaVuSans-74"/>
     <use x="2288.126953" xlink:href="#DejaVuSans-3d"/>
     <use x="2371.916016" xlink:href="#DejaVuSans-34"/>
     <use x="2435.539062" xlink:href="#DejaVuSans-5d"/>
    </g>
   </g>
   <g id="legend_1">
    <g id="patch_7">
     <path d="M 398.275 137.626875 
L 443 137.626875 
Q 445 137.626875 445 135.626875 
L 445 33.88 
Q 445 31.88 443 31.88 
L 398.275 31.88 
Q 396.275 31.88 396.275 33.88 
L 396.275 135.626875 
Q 396.275 137.626875 398.275 137.626875 
z
" style="fill:#ffffff;opacity:0.8;stroke:#cccccc;stroke-linejoin:miter;"/>
    </g>
    <g id="line2d_33">
     <path d="M 400.275 39.978437 
L 420.275 39.978437 
" style="fill:none;stroke:#3db7e9;stroke-linecap:square;stroke-width:1.5;"/>
    </g>
    <g id="line2d_34">
     <g>
      <use style="fill:#3db7e9;stroke:#3db7e9;" x="410.275" xlink:href="#m211ca92c9c" y="39.978437"/>
     </g>
    </g>
    <g id="text_29">
     <!-- 64 -->
     <g transform="translate(428.275 43.478437)scale(0.1 -0.1)">
      <use xlink:href="#DejaVuSans-36"/>
      <use x="63.623047" xlink:href="#DejaVuSans-34"/>
     </g>
    </g>
    <g id="line2d_35">
     <path d="M 400.275 54.656563 
L 420.275 54.656563 
" style="fill:none;stroke:#f748a5;stroke-linecap:square;stroke-width:1.5;"/>
    </g>
    <g id="line2d_36">
     <g>
      <use style="fill:#f748a5;stroke:#f748a5;" x="410.275" xlink:href="#m14e0f56c90" y="54.656563"/>
     </g>
    </g>
    <g id="text_30">
     <!-- 32 -->
     <g transform="translate(428.275 58.156563)scale(0.1 -0.1)">
      <use xlink:href="#DejaVuSans-33"/>
      <use x="63.623047" xlink:href="#DejaVuSans-32"/>
     </g>
    </g>
    <g id="line2d_37">
     <path d="M 400.275 69.334687 
L 420.275 69.334687 
" style="fill:none;stroke:#359b73;stroke-linecap:square;stroke-width:1.5;"/>
    </g>
    <g id="line2d_38">
     <g>
      <use style="fill:#359b73;stroke:#359b73;" x="410.275" xlink:href="#mfa41c9182e" y="69.334687"/>
     </g>
    </g>
    <g id="text_31">
     <!-- 16 -->
     <g transform="translate(428.275 72.834687)scale(0.1 -0.1)">
      <use xlink:href="#DejaVuSans-31"/>
      <use x="63.623047" xlink:href="#DejaVuSans-36"/>
     </g>
    </g>
    <g id="line2d_39">
     <path d="M 400.275 84.012812 
L 420.275 84.012812 
" style="fill:none;stroke:#d55e00;stroke-linecap:square;stroke-width:1.5;"/>
    </g>
    <g id="line2d_40">
     <g>
      <use style="fill:#d55e00;stroke:#d55e00;" x="410.275" xlink:href="#mfae720d637" y="84.012812"/>
     </g>
    </g>
    <g id="text_32">
     <!-- 8 -->
     <g transform="translate(428.275 87.512812)scale(0.1 -0.1)">
      <use xlink:href="#DejaVuSans-38"/>
     </g>
    </g>
    <g id="line2d_41">
     <path d="M 400.275 98.690937 
L 420.275 98.690937 
" style="fill:none;stroke:#e69f00;stroke-linecap:square;stroke-width:1.5;"/>
    </g>
    <g id="line2d_42">
     <g>
      <use style="fill:#e69f00;stroke:#e69f00;" x="410.275" xlink:href="#ma3fa9f2975" y="98.690937"/>
     </g>
    </g>
    <g id="text_33">
     <!-- 4 -->
     <g transform="translate(428.275 102.190937)scale(0.1 -0.1)">
      <use xlink:href="#DejaVuSans-34"/>
     </g>
    </g>
    <g id="line2d_43">
     <path d="M 400.275 113.369062 
L 420.275 113.369062 
" style="fill:none;stroke:#f0e442;stroke-linecap:square;stroke-width:1.5;"/>
    </g>
    <g id="line2d_44">
     <g>
      <use style="fill:#f0e442;stroke:#f0e442;" x="410.275" xlink:href="#m05a2e607f7" y="113.369062"/>
     </g>
    </g>
    <g id="text_34">
     <!-- 2 -->
     <g transform="translate(428.275 116.869062)scale(0.1 -0.1)">
      <use xlink:href="#DejaVuSans-32"/>
     </g>
    </g>
    <g id="line2d_45">
     <path d="M 400.275 128.047187 
L 420.275 128.047187 
" style="fill:none;stroke:#000000;stroke-linecap:square;stroke-width:1.5;"/>
    </g>
    <g id="line2d_46">
     <g>
      <use style="stroke:#000000;" x="410.275" xlink:href="#m4823446368" y="128.047187"/>
     </g>
    </g>
    <g id="text_35">
     <!-- 1 -->
     <g transform="translate(428.275 131.547187)scale(0.1 -0.1)">
      <use xlink:href="#DejaVuSans-31"/>
     </g>
    </g>
   </g>
  </g>
 </g>
 <defs>
  <clipPath id="p6fb1fcf7aa">
   <rect height="276.76" width="405.43" x="44.57" y="26.88"/>
  </clipPath>
 </defs>
</svg>
